<svg width="512" height="512" xmlns="http://www.w3.org/2000/svg">

 <g>
  <title>background</title>
  <rect fill="none" id="canvas_background" height="602" width="802" y="-1" x="-1"/>
 </g>
 <g>
  <title>Layer 1</title>
  <g id="surface1">
   <path id="svg_1" fill-rule="nonzero" fill="rgb(0%,0%,0%)" d="m488.90625,84l-104.90625,0c-4.14453,0 -7.5,3.35547 -7.5,7.5c0,4.14453 3.35547,7.5 7.5,7.5l104.90625,0c4.46484,0 8.09375,3.62891 8.09375,8.09375l0,288.8125c0,4.46484 -3.62891,8.09375 -8.09375,8.09375l-465.8125,0c-4.46484,0 -8.09375,-3.62891 -8.09375,-8.09375l0,-288.8125c0,-4.46484 3.62891,-8.09375 8.09375,-8.09375l164.78125,0l0,15l-150.375,0c-4.14453,0 -7.5,3.35547 -7.5,7.5l0,198.16797c0,4.14062 3.35547,7.5 7.5,7.5c4.14453,0 7.5,-3.35938 7.5,-7.5l0,-190.66797l142.875,0l0,40.23438l-32.10937,15.33984c-2.5625,1.22656 -4.26563,3.875 -4.26563,6.76953l0,122.3125c0,2.89063 1.66016,5.52344 4.26563,6.76953l97,46.34375c2.10156,0.98828 4.47265,0.9375 6.46875,0l54.53125,-26.05469c3.73828,-1.78515 5.32031,-6.26562 3.53515,-10c-1.78515,-3.73828 -6.26953,-5.32031 -10.0039,-3.53515l-43.79688,20.92578l0,-105.69141l82,-39.17578l0,105.69141l-11.14062,5.32031c-3.73829,1.78516 -5.32032,6.26563 -3.53516,10c1.78516,3.73828 6.26562,5.32031 10,3.53516l15.41016,-7.35938c2.60546,-1.24609 4.26562,-3.8789 4.26562,-6.76953l0,-122.3125c0,-2.85937 -1.66406,-5.52344 -4.26562,-6.76953l-32.10938,-15.33984l0,-40.23438l142.875,0l0,245l-422,0l0,-22.33203c0,-4.14453 -3.35547,-7.5 -7.5,-7.5c-4.14453,0 -7.5,3.35547 -7.5,7.5l0,29.83203c0,4.14453 3.35547,7.5 7.5,7.5l437,0c4.14453,0 7.5,-3.35547 7.5,-7.5l0,-260c0,-4.14453 -3.35547,-7.5 -7.5,-7.5l-150.375,0l0,-15l27.875,0c4.14453,0 7.5,-3.35547 7.5,-7.5c0,-4.14453 -3.35547,-7.5 -7.5,-7.5l-27.875,0l0,-15l67.25,0c4.14453,0 7.5,-3.35547 7.5,-7.5l0,-17.78906c8.73047,-3.09766 15,-11.4336 15,-21.21094c0,-12.40625 -10.09375,-22.5 -22.5,-22.5c-12.40625,0 -22.5,10.09375 -22.5,22.5c0,9.77734 6.26953,18.11328 15,21.21094l0,10.28906l-67.25,0c-4.14453,0 -7.5,3.35547 -7.5,7.5l0,22.5l-45.625,0l0,-40.28906c8.73047,-3.09766 15,-11.4336 15,-21.21094c0,-12.40625 -10.09375,-22.5 -22.5,-22.5c-12.40625,0 -22.5,10.09375 -22.5,22.5c0,9.77734 6.26953,18.11328 15,21.21094l0,40.28906l-45.625,0l0,-22.5c0,-4.14453 -3.35547,-7.5 -7.5,-7.5l-67.25,0l0,-10.28906c8.73047,-3.09766 15,-11.4336 15,-21.21094c0,-12.40625 -10.09375,-22.5 -22.5,-22.5c-12.40625,0 -22.5,10.09375 -22.5,22.5c0,9.77734 6.26953,18.11328 15,21.21094l0,17.78906c0,4.14453 3.35547,7.5 7.5,7.5l67.25,0l0,15l-164.78125,0c-12.73437,0 -23.09375,10.35938 -23.09375,23.09375l0,288.8125c0,12.73438 10.35938,23.09375 23.09375,23.09375l162.60156,0c-2.90234,27.51172 -21.09375,43.57813 -26.82812,48l-31.86719,0c-12.40625,0 -22.5,10.09375 -22.5,22.5c0,12.40625 10.09375,22.5 22.5,22.5l258,0c12.40625,0 22.5,-10.09375 22.5,-22.5c0,-12.40625 -10.09375,-22.5 -22.5,-22.5l-31.84766,0c-5.66015,-4.40625 -23.91406,-20.61719 -26.83984,-48l162.59375,0c12.73438,0 23.09375,-10.35937 23.09375,-23.09375l0,-288.8125c0,-12.73437 -10.35937,-23.09375 -23.09375,-23.09375zm-97.53125,-69c4.13672,0 7.5,3.36328 7.5,7.5c0,4.13672 -3.36328,7.5 -7.5,7.5c-4.13672,0 -7.5,-3.36328 -7.5,-7.5c0,-4.13672 3.36328,-7.5 7.5,-7.5zm-135.375,0c4.13672,0 7.5,3.36328 7.5,7.5c0,4.13672 -3.36328,7.5 -7.5,7.5c-4.13672,0 -7.5,-3.36328 -7.5,-7.5c0,-4.13672 3.36328,-7.5 7.5,-7.5zm-135.375,0c4.13672,0 7.5,3.36328 7.5,7.5c0,4.13672 -3.36328,7.5 -7.5,7.5c-4.13672,0 -7.5,-3.36328 -7.5,-7.5c0,-4.13672 3.36328,-7.5 7.5,-7.5zm82.25,114l45.625,0l0,11.26953l-45.625,21.80078l0,-33.07031zm132.72656,62.34375l-79.60156,38.02734l-79.60156,-38.02734l79.60156,-38.03125l79.60156,38.03125zm-169.10156,11.89453l82,39.17578l0,105.69141l-82,-39.17578l0,-105.69141zm142.625,-41.16797l-45.625,-21.80078l0,-11.26953l45.625,0l0,33.07031zm0,-63.07031l0,15l-45.625,0l0,-15l45.625,0zm-60.625,0l0,15l-45.625,0l0,-15l45.625,0zm144,390.5c0,4.13672 -3.36328,7.5 -7.5,7.5l-258,0c-4.13672,0 -7.5,-3.36328 -7.5,-7.5c0,-4.13672 3.36328,-7.5 7.5,-7.5l258,0c4.13672,0 7.5,3.36328 7.5,7.5zm-60.85937,-22.5l-151.28125,0c8.79296,-10.26953 18.54687,-26.27344 20.41796,-48l110.44532,0c1.87109,21.72656 11.625,37.73047 20.41797,48zm0,0"/>
  </g>
 </g>
</svg>