<svg width="512" height="512" xmlns="http://www.w3.org/2000/svg">

 <g>
  <title>background</title>
  <rect fill="none" id="canvas_background" height="602" width="802" y="-1" x="-1"/>
 </g>
 <g>
  <title>Layer 1</title>
  <g id="svg_1">
   <g id="svg_2">
    <path id="svg_3" d="m0,15.845l0,420.259l164.332,0l0,30.049l-30.036,0l0,30.001l243.407,0l0,-30.001l-30.036,0l0,-30.049l164.333,0l0,-420.259l-512,0zm317.665,450.308l-123.331,0l0,-30.049l123.332,0l0,30.049l-0.001,0zm164.334,-60.05l-451.998,0l0,-60.075l451.997,0l0,60.075l0.001,0zm0,-90.076l-451.998,0l0,-270.18l451.997,0l0,270.18l0.001,0z"/>
   </g>
  </g>
  <g id="svg_4">
   <g id="svg_5">
    <polygon id="svg_6" points="203.943,126.712 182.729,105.498 107.29,180.937 182.729,256.375 203.943,235.161 149.718,180.937   "/>
   </g>
  </g>
  <g id="svg_7">
   <g id="svg_8">
    <polygon id="svg_9" points="329.271,105.498 308.057,126.712 362.282,180.937 308.057,235.161 329.271,256.375 404.709,180.937   "/>
   </g>
  </g>
  <g id="svg_10">
   <g id="svg_11">
    <rect id="svg_12" height="30.002" width="178.511" transform="matrix(0.1951,-0.9808,0.9808,0.1951,28.5815,396.7237) " y="165.947" x="166.742"/>
   </g>
  </g>
  <g id="svg_13"/>
  <g id="svg_14"/>
  <g id="svg_15"/>
  <g id="svg_16"/>
  <g id="svg_17"/>
  <g id="svg_18"/>
  <g id="svg_19"/>
  <g id="svg_20"/>
  <g id="svg_21"/>
  <g id="svg_22"/>
  <g id="svg_23"/>
  <g id="svg_24"/>
  <g id="svg_25"/>
  <g id="svg_26"/>
  <g id="svg_27"/>
 </g>
</svg>