<svg width="64" height="64" xmlns="http://www.w3.org/2000/svg">

 <g>
  <title>background</title>
  <rect fill="none" id="canvas_background" height="602" width="802" y="-1" x="-1"/>
 </g>
 <g>
  <title>Layer 1</title>
  <path id="svg_1" fill="#50b6cf" d="m56,28.99999c0,-15.34004 -13.28478,-27.57718 -28.977,-25.83429c-12.04351,1.33764 -21.68598,11.10579 -22.88941,23.16345c-0.66052,6.61805 1.16566,12.78944 4.65358,17.69903c3.50479,4.93333 5.21283,10.92025 5.21283,16.9718l0,0.00001l25,0l0,-5l13,0l0,-13l7,0l-3,-14z"/>
  <path id="svg_2" fill="#e34e4b" d="m36.91101,26.26715c0.05274,-0.41595 0.08899,-0.83691 0.08899,-1.26715s-0.03625,-0.8512 -0.08899,-1.26715l-2.21887,-0.91022c-0.17145,-0.60681 -0.40918,-1.18488 -0.71112,-1.72388l0.92316,-2.20874c-0.52008,-0.67181 -1.12231,-1.27399 -1.79413,-1.79407l-2.20874,0.9231c-0.539,-0.30194 -1.11713,-0.53967 -1.72394,-0.71118l-0.91022,-2.21887c-0.41595,-0.05274 -0.83691,-0.08899 -1.26715,-0.08899s-0.8512,0.03625 -1.26715,0.08899l-0.91022,2.21887c-0.60681,0.17145 -1.18488,0.40924 -1.72388,0.71112l-2.20868,-0.92316c-0.67181,0.52008 -1.27405,1.12225 -1.79419,1.79407l0.92316,2.20886c-0.30194,0.539 -0.53967,1.11707 -0.71118,1.72388l-2.21887,0.91022c-0.05274,0.41595 -0.08899,0.83691 -0.08899,1.26715s0.03625,0.85126 0.08899,1.26715l2.21881,0.91016c0.17151,0.60681 0.4093,1.18488 0.71118,1.72388l-0.92316,2.20874c0.52008,0.67181 1.12231,1.27399 1.79407,1.79413l2.2088,-0.9231c0.539,0.30188 1.11707,0.53961 1.72394,0.71118l0.91022,2.21887c0.41595,0.05274 0.83691,0.08899 1.26715,0.08899s0.8512,-0.03625 1.26715,-0.08899l0.91022,-2.21887c0.60681,-0.17145 1.18488,-0.40918 1.72388,-0.71112l2.20874,0.92316c0.67181,-0.52014 1.27405,-1.12231 1.79413,-1.79413l-0.92316,-2.2088c0.30194,-0.539 0.53967,-1.11707 0.71118,-1.72388l2.21887,-0.91022zm-9.91101,2.73285c-2.20917,0 -4,-1.79089 -4,-4c0,-2.20917 1.79083,-4 4,-4s4,1.79083 4,4c0,2.20911 -1.79083,4 -4,4z"/>
  <path id="svg_3" fill="#3cadc9" d="m14,60.99994l0,0.00006l25,0l0,-5l13,0l0,-3.76062c-20.9151,-4.7016 -37.66168,-18.41553 -44.56787,-36.1347c-1.76898,3.07983 -2.93109,6.54297 -3.29852,10.22443c-0.66052,6.6181 1.16565,12.78949 4.65356,17.69904c3.50476,4.93334 5.21283,10.92028 5.21283,16.97179z"/>
  <g id="svg_4" fill="#0d0f23">
   <path id="svg_5" d="m13,61c0,0.55225 0.44727,1 1,1l25,0c0.55273,0 1,-0.44775 1,-1l0,-4l12,0c0.55273,0 1,-0.44775 1,-1l0,-12l6,0c0.30176,0 0.58789,-0.13623 0.77734,-0.37109c0.19043,-0.23486 0.26367,-0.54297 0.2002,-0.83838l-2.97754,-13.89746c-0.03027,-7.63135 -3.30664,-14.92188 -8.99902,-20.01709c-5.79785,-5.18994 -13.28906,-7.57031 -21.08789,-6.7041c-12.52344,1.39111 -22.52247,11.50878 -23.77442,24.05761c-0.65332,6.54443 1.0625,13.07129 4.83301,18.37793c3.29004,4.62988 5.02832,10.29834 5.02832,16.39258zm-7.87109,-34.57178c1.15918,-11.61572 10.41308,-20.98095 22.00488,-22.26904c7.23145,-0.7998 14.16504,1.40186 19.5332,6.20703c5.2959,4.74024 8.33301,11.53174 8.33301,18.63379c0,0.07031 0.00781,0.14062 0.02246,0.20947l2.74024,12.79053l-5.7627,0c-0.55273,0 -1,0.44775 -1,1l0,12l-12,0l-4,0l0,2l3,0l0,3l-23.01465,0c-0.18164,-6.13232 -2.0332,-11.83594 -5.38281,-16.55078c-3.49024,-4.9126 -5.0791,-10.95752 -4.47363,-17.021z"/>
   <path id="svg_6" d="m35.82715,30.72412l-0.74316,-1.77588c0.16016,-0.3291 0.30176,-0.67139 0.42285,-1.02393l1.78418,-0.73193c0.33301,-0.13672 0.56641,-0.44238 0.6123,-0.79932c0.06641,-0.52148 0.09668,-0.96386 0.09668,-1.39306s-0.03027,-0.87158 -0.09668,-1.39307c-0.0459,-0.35693 -0.2793,-0.6626 -0.6123,-0.79932l-1.78418,-0.73193c-0.12109,-0.35205 -0.26172,-0.69434 -0.42188,-1.02393l0.74219,-1.77588c0.13867,-0.33252 0.08789,-0.71338 -0.13281,-0.99805c-0.57129,-0.73828 -1.23438,-1.40186 -1.97168,-1.97266c-0.28516,-0.22168 -0.66797,-0.27051 -0.99805,-0.13232l-1.77637,0.74268c-0.33008,-0.16016 -0.67188,-0.30127 -1.02344,-0.42188l-0.73242,-1.78418c-0.13672,-0.3335 -0.44141,-0.56738 -0.79883,-0.61279c-1.04297,-0.13184 -1.74414,-0.13184 -2.78711,0c-0.35742,0.04541 -0.66211,0.2793 -0.79883,0.61279l-0.73242,1.78418c-0.35156,0.12061 -0.69336,0.26172 -1.02344,0.42188l-1.77637,-0.74268c-0.33105,-0.13818 -0.71387,-0.08936 -0.99805,0.13232c-0.7373,0.57129 -1.40039,1.23438 -1.97168,1.97168c-0.2207,0.28467 -0.27148,0.66602 -0.13281,0.99854l0.74316,1.77588c-0.16016,0.32959 -0.30176,0.67188 -0.42285,1.02441l-1.78418,0.73193c-0.33301,0.13672 -0.56641,0.44238 -0.6123,0.79932c-0.0664,0.5215 -0.09667,0.96388 -0.09667,1.39308s0.03027,0.87158 0.09668,1.39307c0.0459,0.35693 0.2793,0.6626 0.6123,0.79932l1.78418,0.73193c0.12109,0.35205 0.26172,0.69434 0.42188,1.02393l-0.74219,1.77588c-0.13867,0.33252 -0.08789,0.71338 0.13281,0.99805c0.57129,0.73828 1.23438,1.40186 1.97168,1.97266c0.28418,0.22119 0.66699,0.27002 0.99805,0.13232l1.77637,-0.74268c0.33008,0.16016 0.67188,0.30127 1.02344,0.42188l0.73242,1.78418c0.13672,0.3335 0.44141,0.56738 0.79883,0.61279c0.52148,0.06591 0.96386,0.09667 1.39355,0.09667s0.87207,-0.03076 1.39355,-0.09668c0.35742,-0.04541 0.66211,-0.2793 0.79883,-0.61279l0.73242,-1.78418c0.35254,-0.12061 0.69434,-0.26172 1.02344,-0.42188l1.77637,0.74268c0.33008,0.1377 0.71289,0.08887 0.99805,-0.13232c0.7373,-0.5708 1.40039,-1.23438 1.97168,-1.97266c0.2207,-0.28467 0.27148,-0.66602 0.13281,-0.99805zm-1.51465,-4.47217c-0.28418,0.1167 -0.49902,0.35742 -0.58203,0.65283c-0.15234,0.53516 -0.36133,1.04248 -0.62207,1.50684c-0.15039,0.26855 -0.16895,0.5918 -0.05078,0.87549l0.69141,1.65186c-0.25293,0.28711 -0.52344,0.55762 -0.80957,0.81006l-1.65234,-0.69092c-0.28418,-0.11816 -0.60645,-0.1001 -0.875,0.05078c-0.46484,0.26074 -0.97168,0.46973 -1.50684,0.62158c-0.2959,0.0835 -0.53613,0.29834 -0.65234,0.58252l-0.68359,1.66504c-0.40039,0.0293 -0.73828,0.0293 -1.13867,0l-0.68359,-1.66504c-0.11621,-0.28418 -0.35645,-0.49902 -0.65234,-0.58252c-0.5332,-0.15137 -1.04004,-0.36084 -1.50781,-0.62207c-0.26953,-0.14941 -0.58984,-0.16846 -0.87402,-0.05029l-1.65234,0.69092c-0.28613,-0.25244 -0.55664,-0.52344 -0.80957,-0.81006l0.69043,-1.65186c0.11816,-0.28369 0.09961,-0.60596 -0.0498,-0.87402c-0.26172,-0.46631 -0.4707,-0.97363 -0.62207,-1.5083c-0.08301,-0.29541 -0.29785,-0.53613 -0.58203,-0.65283l-1.66504,-0.68311c-0.01566,-0.2002 -0.0225,-0.38721 -0.0225,-0.56885s0.00684,-0.36865 0.02246,-0.56885l1.66504,-0.68311c0.28418,-0.1167 0.49902,-0.35742 0.58203,-0.65283c0.15234,-0.53516 0.36133,-1.04248 0.62207,-1.50684c0.15039,-0.26855 0.16895,-0.59131 0.05078,-0.87549l-0.69141,-1.65234c0.25293,-0.28662 0.52344,-0.55713 0.80957,-0.80957l1.65234,0.69092c0.28418,0.11816 0.60449,0.09912 0.87402,-0.05029c0.46777,-0.26123 0.97461,-0.4707 1.50781,-0.62207c0.2959,-0.0835 0.53613,-0.29834 0.65234,-0.58252l0.68359,-1.66504c0.40039,-0.0293 0.73828,-0.0293 1.13867,0l0.68359,1.66504c0.11621,0.28418 0.35645,0.49902 0.65234,0.58252c0.5332,0.15137 1.04004,0.36084 1.50781,0.62207c0.26758,0.14941 0.58984,0.16846 0.87402,0.05029l1.65234,-0.69092c0.28613,0.25244 0.55664,0.52344 0.80957,0.81006l-0.69043,1.65186c-0.11816,0.28369 -0.09961,0.60596 0.0498,0.87402c0.26172,0.46631 0.4707,0.97363 0.62207,1.5083c0.08301,0.29541 0.29785,0.53613 0.58203,0.65283l1.66504,0.68311c0.01567,0.2002 0.02251,0.38721 0.02251,0.56885s-0.00684,0.36865 -0.02246,0.56885l-1.66504,0.6831z"/>
   <path id="svg_7" d="m27,20c-2.75684,0 -5,2.24316 -5,5s2.24316,5 5,5s5,-2.24316 5,-5s-2.24316,-5 -5,-5zm0,8c-1.6543,0 -3,-1.3457 -3,-3s1.3457,-3 3,-3s3,1.3457 3,3s-1.3457,3 -3,3z"/>
   <path id="svg_8" d="m35.29883,36.27734l1.1875,1.60938c1.14453,-0.84375 2.17285,-1.83691 3.05762,-2.95264l-1.56641,-1.24316c-0.77539,0.97754 -1.67676,1.84765 -2.67871,2.58642z"/>
   <path id="svg_9" d="m28.61816,40.91943l-0.20117,-1.99023c-0.46484,0.04687 -0.93652,0.0708 -1.40429,0.0708c-0.77637,0.03662 -1.55664,-0.06299 -2.31641,-0.18848l-0.32617,1.97266c0.86816,0.14355 1.79492,0.2041 2.64355,0.21582c0.53321,0 1.07227,-0.02734 1.60449,-0.08057z"/>
   <path id="svg_10" d="m42.4248,29.26611l-1.92773,-0.53223c-0.33105,1.2002 -0.82324,2.35107 -1.46094,3.42139l1.7168,1.02441c0.73047,-1.22363 1.29297,-2.54052 1.67187,-3.91357z"/>
   <path id="svg_11" d="m12.75098,32.28271l1.7793,-0.91211c-0.43066,-0.8418 -0.77637,-1.72852 -1.02734,-2.63672c-0.33399,-1.20898 -0.50294,-2.46533 -0.50294,-3.73388c0,-7.71973 6.28027,-14 14,-14l7.58594,0l-1.29297,1.29297l1.41406,1.41406l3,-3c0.39062,-0.39062 0.39062,-1.02344 0,-1.41406l-3,-3l-1.41406,1.41406l1.29297,1.29297l-7.58594,0c-8.82227,0 -16,7.17773 -16,16c0,1.44824 0.19336,2.88379 0.5752,4.26611c0.2871,1.03907 0.68261,2.05371 1.17578,3.0166z"/>
   <path id="svg_12" d="m30.25586,38.61963l0.46289,1.94531c1.38477,-0.3291 2.71973,-0.84424 3.9707,-1.53076l-0.96289,-1.75293c-1.09277,0.6001 -2.26074,1.05029 -3.4707,1.33838z"/>
   <path id="svg_13" d="m18.42871,38.51221c1.20312,0.76514 2.50293,1.36523 3.86328,1.78369l0.58789,-1.91211c-1.18945,-0.36523 -2.3252,-0.89014 -3.37695,-1.55908l-1.07422,1.6875z"/>
   <path id="svg_14" d="m15.48926,32.97021l-1.64453,1.13965c0.81055,1.16846 1.77344,2.22559 2.86426,3.14258l1.28711,-1.53125c-0.95508,-0.80273 -1.79883,-1.72803 -2.50684,-2.75098z"/>
   <path id="svg_15" d="m23,55l2,0l0,2l-2,0l0,-2z"/>
   <path id="svg_16" d="m27,55l2,0l0,2l-2,0l0,-2z"/>
   <path id="svg_17" d="m31,55l2,0l0,2l-2,0l0,-2z"/>
  </g>
 </g>
</svg>